<svg width="455" height="416" fill="none" xmlns="http://www.w3.org/2000/svg"><path d="M132.911 28.6c-13.85 19.854 2.39 52.042-18.162 66.973-20.005 14.535-44.581-9.29-63.435 3.222-27.968 18.56-22.86 103.487 18.03 156.254 12.298 15.869 22.573 22.043 27.124 39.99 9.772 38.537-24.572 61.461-18.036 80.52 14.716 42.915 241.034 78.926 331.843-50.048 42.411-60.236 48.757-147.218 10.863-213.281C352.666-7.144 163.989-15.947 132.911 28.6z" fill="#F2F4F4"/><path d="M290.021 359.258c28.373.192 64.545-3.617 99.188-19.307 8.841-4.004 63.458-28.741 57.008-53.649-2.273-8.773-10.203-10.159-13.446-21.836-3.842-13.837 4.833-20.749 10.847-37.994 3.588-10.29 14.089-40.404-3.929-57.077-10.767-9.963-31.23-14.677-46.806-11.036-22.847 5.341-30.702 27.609-43.341 65.516-11.205 33.604-8.326 41.853-16.816 65.91-6.301 17.854-18.165 42.436-42.705 69.473z" fill="#B3CEE0"/><path opacity=".5" d="M218.746 374.768c-16.432.001-33.248-2.276-50.312-6.825l.344-1.297c31.05 8.277 61.261 8.979 89.798 2.086 38.013-9.184 70.987-31.986 98.005-67.775 28.145-37.28 42.778-79.308 50.098-108 5.065-19.853 4.087-41.836-2.907-65.341l1.285-.384c7.064 23.741 8.046 45.966 2.92 66.057-7.35 28.812-22.048 71.02-50.327 108.478-27.209 36.042-60.437 59.011-98.76 68.269a170.49 170.49 0 01-40.144 4.732z" fill="#fff"/><path opacity=".5" d="M387.501 250.288l-.379-.469c-.08-.099-8.05-10.043-14.488-25.221-5.949-14.026-11.779-35.532-5.775-58.333l1.296.342c-10.637 40.391 16.14 77.301 19.639 81.891 60.059-39.153 59.464-83.89 57.842-96.697a7.945 7.945 0 01-.067-.651l.671.007.67-.006c.003.074.024.236.056.481 1.651 13.041 2.279 58.67-58.959 98.328l-.506.328z" fill="#fff"/><path opacity=".5" d="M380.552 303.159a158.305 158.305 0 01-23.065-1.758l-.354-.052-.153-.324c-.165-.347-16.386-35.223-12.827-82.638l3.586-47.785 1.336.1-3.586 47.786c-3.347 44.616 10.933 78.018 12.554 81.638 20.295 2.944 49.527 3.429 74.265-10.721 14.872-8.508 21.141-18.425 21.202-18.524l1.139.708c-.257.414-6.464 10.258-21.599 18.937-10.814 6.201-27.951 12.633-52.498 12.633z" fill="#fff"/><path d="M261.884 282.533c-22.29 20.947-53.671 44.447-92.532 57.431-9.918 3.314-71.183 23.784-84.297-.639-4.619-8.603.638-15.511-5.338-27.122-7.08-13.757-18.992-12.864-36.356-22.093-10.36-5.506-40.682-21.622-38.63-48.011 1.226-15.77 13.957-34.495 28.934-43.032 21.967-12.522 44.459-.671 82.17 20.04 33.43 18.359 37.185 26.992 61.488 39.792 18.037 9.499 45.391 20.241 84.561 23.634z" fill="#CFE0ED"/><path opacity=".5" d="M244.131 300.384c-18.987 0-38.672-2.863-59.055-8.589-48.61-13.68-88.667-40.291-113.711-60.206-17.445-13.872-31.043-33.553-40.418-58.497l.95-.358c9.309 24.77 22.8 44.304 40.099 58.06 24.97 19.857 64.907 46.389 113.355 60.023 46.526 13.094 89.71 11.141 128.353-5.805 29.007-12.72 54.504-33.059 75.782-60.452l.8.624c-21.382 27.528-47.012 47.97-76.175 60.758-21.946 9.624-45.349 14.442-69.98 14.442z" fill="#fff"/><path opacity=".5" d="M109.732 267.741c-66.648 0-92.312-35-98.88-46.396-.142-.245-.231-.405-.276-.467l.804-.619c.127.186.244.379.35.578 6.966 12.086 35.678 51.01 112.969 45.324.022-2.505-.085-15.017-3.96-30.329-3.978-15.722-12.858-37.701-32.567-53.128l.625-.8c19.944 15.61 28.917 37.823 32.933 53.708 4.347 17.196 3.98 30.901 3.976 31.037l-.014.456-.455.035c-5.395.408-10.564.608-15.505.601z" fill="#fff"/><path opacity=".5" d="M173.761 302.498c-76.22 18.652-115.367-14.193-126.068-25.387-.23-.241-.377-.399-.446-.457l.746-.933c.198.177.386.366.563.563 11.349 11.873 55.078 48.352 141.88 20.219-.676-2.872-4.3-17.15-13.017-33.578-8.95-16.867-25.256-39.518-52.114-51.644l.491-1.09c27.178 12.27 43.656 35.162 52.694 52.205 9.785 18.45 13.201 34.226 13.234 34.383l.112.526-.511.166c-6.056 1.977-11.911 3.653-17.564 5.027z" fill="#fff"/><path d="M285.862 299.464c-16.479-10.182-39.029-27.576-53.36-55.748-18.794-36.948-6.939-59.971-22.206-125.899-9.653-41.685-16.809-70.679-41.092-82.018-19.03-8.885-46.299-5.865-60.239 8.807-11.59 12.2-15.323 33.884-14.793 48.71.432 12.084 3.718 20.252-1.758 27.78-5.598 7.694-13.745 5.645-19.227 11.616-11.118 12.108 2.796 41.875 5.045 46.686 25.015 53.516 84.522 80.918 110.624 92.559 21.581 9.624 54.379 21.626 97.006 27.507z" fill="#FEB58A"/><path opacity=".5" d="M303.8 306.56c-25.984-4.262-48.968-10.978-68.314-19.963-28.631-13.297-48.428-31.241-58.84-53.333-8.142-17.279-10.5-37.327-13.485-62.709-2.474-21.041-2.332-36.164-2.207-49.507.162-17.299.29-30.962-5.495-49.504-5.879-18.837-16.106-36.675-30.397-53.02l.763-.669c14.385 16.452 24.681 34.413 30.602 53.386 5.833 18.695 5.704 32.429 5.541 49.816-.124 13.313-.266 28.402 2.201 49.379 3.09 26.279 5.322 45.266 13.395 62.395 10.308 21.871 29.939 39.65 58.349 52.845 19.262 8.946 42.158 15.635 68.052 19.881l-.165 1.003z" fill="#fff"/><path opacity=".5" d="M162.022 155.613l-.27-.506c-18.752-35.174-43.52-54.524-60.995-64.563-18.919-10.869-33.568-13.457-33.714-13.482l.17-1.001c.148.025 14.975 2.644 34.049 13.602 17.505 10.056 42.276 29.389 61.108 64.449 2.343-1.765 13.154-10.354 22.691-25.257 9.875-15.432 20.365-40.994 14.261-75.133l.998-.179c6.165 34.482-4.443 60.305-14.428 75.896-10.819 16.893-23.277 25.757-23.401 25.845l-.469.329z" fill="#fff"/><path opacity=".5" d="M170.2 212.121l-.367-.031c-23.987-2.039-53.468-28.191-73.975-49.772-22.177-23.337-38.932-46.496-39.098-46.728l.822-.594c.166.231 16.887 23.342 39.018 46.63 20.28 21.34 49.352 47.174 72.954 49.419 1.256-2.916 10.463-23.902 23.552-43.305 14.097-20.896 53.892-35.233 54.293-35.375l.339.957c-.397.141-39.882 14.368-53.791 34.987-13.978 20.719-23.509 43.247-23.604 43.472l-.143.34z" fill="#fff"/><path d="M227.111 256.991a281.945 281.945 0 01-37.452-2.571c-26.398-3.581-64.908-12.75-98.46-36.092l-64.79-45.073.578-.834 64.79 45.073c33.379 23.221 71.712 32.348 97.992 35.916 24.95 3.388 44.05 2.544 48.552 2.27-7.861-9.215-12.147-19.634-12.739-30.984-.487-9.32 1.503-19.276 5.914-29.592 7.495-17.527 19.569-30.208 19.69-30.334l.731.704c-.12.125-12.081 12.692-19.499 30.054-4.345 10.169-6.303 19.969-5.823 29.129.601 11.429 5.028 21.901 13.158 31.125l.668.759-1.007.083c-.096.008-4.63.367-12.303.367z" fill="#fff" opacity=".5"/><path d="M287.518 292.765c-1.841-2.506-12.918-17.11-30.448-17.718-14.676-.509-25.899 9.067-28.499 11.285-10.469 8.933-9.259 16.058-17.715 18.95-10.041 3.434-17.247-4.731-23.741-.017-4.48 3.252-5.792 10.58-3.976 15.69 3.188 8.969 16.773 13.243 27.076 11.099 14.194-2.954 14.514-16.502 30.63-20.854 9.366-2.529 12.094 1.28 22.056-1.163 11.568-2.838 19.596-10.847 24.617-17.272z" fill="url(#paint0_linear_85_1544)"/><g style="mix-blend-mode:soft-light" opacity=".5" fill="#fff"><path d="M206.893 318.787c-8.708 0-19.311-4.35-31.66-13.007l.292-.416c16.542 11.597 29.883 15.411 39.652 11.337 6.157-2.568 9.208-7.409 12.437-12.534 3.634-5.767 7.391-11.731 15.918-14.578 6.557-2.188 14.151-1.141 29.281.947a190.056 190.056 0 0122.457 4.494l-.13.491a189.615 189.615 0 00-22.395-4.482c-15.053-2.077-22.608-3.119-29.053-.968-8.355 2.789-12.063 8.675-15.649 14.367-3.274 5.195-6.366 10.102-12.671 12.731-2.587 1.079-5.413 1.618-8.479 1.618z" opacity=".5"/><path d="M189.566 333.487l-.115-.495c17.971-4.177 22.848-14.298 23.282-15.281-1.613-5.56-6.32-10.26-9.995-13.229a52.822 52.822 0 00-7.744-5.206l.235-.45c.149.078 14.909 7.889 18.016 18.832l.024.082-.031.08c-.045.112-4.612 11.237-23.672 15.667zm40.898-5.824c-1.807-5.439-.175-13.489 4.852-23.926a117.03 117.03 0 017.958-13.861c-8.117-6.622-27.964 9.102-28.165 9.263l-.317-.397c.051-.041 5.191-4.133 11.276-7.288 8.241-4.272 14.2-4.883 17.711-1.816l.171.15-.129.187c-.172.246-17.091 24.839-12.876 37.528l-.481.16z" opacity=".5"/><path d="M248.049 320.076c-4.78-18.37 19.813-28.506 22.749-29.643-8.436-14.567-29.505-17.324-29.719-17.351l.063-.504c.216.027 21.784 2.851 30.244 17.863l.148.262-.283.101c-.277.1-27.651 10.162-22.712 29.144l-.49.128z" opacity=".5"/></g><path d="M369.087 54.15c-2.748-8.907-7.04-13.215-10.31-15.492-7.006-4.879-16.502-5.436-16.237-7.306.114-.81 1.992-1.363 2.555-1.529 2.748-.809 4.287.582 5.817-.334 1.14-.682 1.45-2.152 1.676-3.303 1.146-5.826-2.213-12.996-3.998-18.254-.124-.366-.404-1.212-.129-1.412.297-.217 1.088.428 1.354.646 2.841 2.316 6.387 12.659 6.383 12.66-.001 0 .005-1.186-1.063-4.56-1.862-5.879-3.885-8.606-3.708-13.27.035-.91.072-1.73.387-1.823 1.594-.473 7.322 18.526 8.381 18.175.266-.088.117-1.355.043-1.986-.689-5.892-3.928-7.652-3.653-12.415.043-.749.107-1.842.516-1.958 1.374-.388 5.021 10.716 6.831 15.796a242.718 242.718 0 019.01 32.289l-3.855 4.076z" fill="#FEB3B1"/><path d="M251.982 39.765c-5.067-1.585-6.427-7.457-6.964-9.779-1.27-5.487-.777-14.96 4.963-17.587 4.611-2.11 9.763 1.501 10.401 1.962 6.497 4.694 5.277 13.686 5.134 14.626-.32 2.108-.981 6.457-4.8 9.16-.27.19-4.352 2.989-8.734 1.618z" fill="#424242"/><path style="mix-blend-mode:multiply" opacity=".3" d="M258.696 26.26c-3.359-3.334-8.107-1.875-10.109-4.908-.999-1.515-1.256-4.07.761-8.62-5.139 3.015-5.551 11.977-4.329 17.254.537 2.321 1.896 8.194 6.963 9.779 4.382 1.37 8.465-1.428 8.734-1.618.168-.12.327-.242.483-.367.56-4.362.24-8.799-2.503-11.52z" fill="url(#paint1_linear_85_1544)"/><path d="M247.976 156.541s-20.392-63.506-20.323-87.399c.068-23.892 20.881-33.178 30.122-35.386 9.236-2.208 28.829.22 34.86 27.118 6.029 26.888 1.677 87.175 1.677 87.175l-46.336 8.492z" fill="#424242"/><path d="M264.906 92.602c14.692-1.799 17.948-15.688 31.454-17.294a20.4 20.4 0 014.405-.043 148.746 148.746 0 00-.764-7.564 20.46 20.46 0 00-4.936-.017c-13.507 1.603-16.763 15.493-31.456 17.289-11.984 1.465-17.33-6.853-27.47-3.234-2.612.933-4.819 2.4-6.679 4.1.422 2.414.909 4.925 1.448 7.5a19.666 19.666 0 016.53-3.965c10.139-3.62 15.485 4.696 27.468 3.228z" fill="#37383A" opacity=".3"/><path style="mix-blend-mode:multiply" opacity=".8" d="M266.16 116.949c-10.989 1.259-16.015-7.123-25.28-3.685a16.445 16.445 0 00-4.644 2.686c5.549 21.312 11.739 40.592 11.739 40.592l46.336-8.492s1.705-23.625 1.502-47.89c-.34.018-.671.045-.99.081-12.388 1.372-15.189 15.164-28.663 16.708z" fill="#979797"/><path style="mix-blend-mode:multiply" opacity=".3" d="M290.794 76.512c-12.391 1.365-15.192 15.157-28.668 16.692-10.992 1.253-16.019-7.133-25.286-3.7-2.324.86-4.288 2.233-5.945 3.837 1.499 7.282 3.38 15.072 5.342 22.609a16.445 16.445 0 014.644-2.686c9.265-3.437 14.291 4.944 25.28 3.685 13.474-1.544 16.275-15.336 28.663-16.708.319-.035-2.83-23.86-4.03-23.729z" fill="#515356"/><path d="M185.775 201.55c-8.941-11.663 3.361-38.067 16.865-52.944 15.71-17.307 35.822-22.071 48.583-24.915 42.237-9.413 55.788 9.72 77.107-1.255 33.071-17.023 25.814-76.189 40.757-77.824 12.271-1.342 31.604 36.989 26.266 75.001-4.142 29.496-32.158 58.51-60.442 71.428-20.52 9.372-17.404 6.884-64.127 9.586-54.159 3.133-76.196 12.42-85.009.923z" fill="#EE6E23"/><path d="M236.554 127.36c8.669-3.127 22.842-3.834 22.693-34.852 0 0 17.956-1.137 18.637-.912.643.213-4.757 30.982 20.336 30.772 1.706-.014 2.154 2.387.784 3.474-4.537 3.6-14.771 9.174-29.925 9.35-9.593.112-20.535 2.265-32.576-4.082-1.649-.869-1.768-3.094.051-3.75z" fill="#FEAEAB"/><path d="M297.991 186.008c-5.081.064-3.319-42.928-18.519-106.044a535.802 535.802 0 00-8.432-30.936l16.204-2.077c9.386 18.062 23.364 51.671 20.703 95.221-1.251 20.477-6.219 43.789-9.956 43.836z" fill="url(#paint2_linear_85_1544)"/><path d="M297.991 186.008c-5.081.064-3.319-42.928-18.519-106.044a535.802 535.802 0 00-8.432-30.936l16.204-2.077c9.386 18.062 23.364 51.671 20.703 95.221-1.251 20.477-6.219 43.789-9.956 43.836z" fill="#424242"/><path d="M241.566 74.28c.688 4.043 3.865 34.037 26.704 29.08 20.858-4.527 15.367-25.733 12.916-36.443 0 0-2.608-9.538-10.105-10.788 0 0 7.45 4.163 9.394 16.22 0 0-2.711-6.07-18.05-2.978-15.351 3.095-17.385 10.644-17.385 10.644s-4.677-11.012 2.092-18.717c0 0-5.237 2.894-5.566 12.982z" fill="#FC9F9D"/><path style="mix-blend-mode:multiply" opacity=".3" d="M390.324 71.35c2.861 16.623-.208 27.36-4.682 34.587-10.076 16.275-27.89 15.776-49.821 41.465-12.278 14.38-13.073 22.008-20.705 33.041-3.504 5.066-8.081 10.318-14.196 15.386 16.486.459 19.674 1.75 33.991-4.789 28.284-12.918 56.3-41.932 60.442-71.428 2.425-17.273-.244-34.61-5.029-48.262z" fill="#848484"/><path d="M395.628 198.95l-287.762-9.94a10.747 10.747 0 00-10.263 6.551 10.77 10.77 0 00-.854 4.203v185.707a10.76 10.76 0 007.198 10.157c1.395.489 2.877.684 4.352.573l287.763-21.617a10.746 10.746 0 007.074-3.412 10.771 10.771 0 002.868-7.318v-154.15c0-2.789-1.082-5.47-3.018-7.476a10.738 10.738 0 00-7.358-3.278z" fill="#737373"/><path d="M400.575 198.95l-287.763-9.94a10.747 10.747 0 00-10.263 6.551 10.778 10.778 0 00-.854 4.203v185.707a10.778 10.778 0 003.438 7.888 10.73 10.73 0 008.112 2.842l287.763-21.617a10.746 10.746 0 007.074-3.412 10.767 10.767 0 002.868-7.319V209.704c0-2.79-1.082-5.47-3.017-7.476a10.741 10.741 0 00-7.358-3.278z" fill="url(#paint3_linear_85_1544)"/><path d="M287.597 302.22l120.578-99.716a10.705 10.705 0 00-7.6-3.553l-287.763-9.94a10.686 10.686 0 00-7.214 2.462l161.194 111.635a17.238 17.238 0 0020.805-.888z" fill="#8A8A8A"/><path d="M287.597 302.22a17.243 17.243 0 01-20.805.888L105.597 191.473a10.75 10.75 0 00-3.902 8.291v185.708a10.778 10.778 0 003.438 7.888 10.742 10.742 0 008.112 2.842l287.763-21.618a10.742 10.742 0 007.074-3.412 10.766 10.766 0 002.868-7.318v-154.15a10.72 10.72 0 00-2.775-7.2L287.597 302.22z" fill="#D2D2D2"/><path d="M408.175 202.504L287.597 302.22a17.243 17.243 0 01-20.805.888L105.597 191.473a10.75 10.75 0 00-3.902 8.291v27.389c5.824-2.451 10.752-2.922 14.758-2.586 11.074.926 13.719 7.848 34.924 17.841 19.827 9.344 21.907 5.362 30.647 12.133 16.839 13.045 9.475 28.101 24.233 42.106 15.368 14.584 28.628 3.264 50.604 17.128 23.222 14.651 15.788 31.943 34.924 42.107 26.809 14.239 54.186-12.912 76.975 1.427 6.89 4.335 11.296 11.168 14.136 18.636l18.112-1.361a10.742 10.742 0 007.074-3.412 10.766 10.766 0 002.868-7.318v-154.15a10.72 10.72 0 00-2.775-7.2z" fill="#fff" fill-opacity=".78" style="mix-blend-mode:multiply" opacity=".37"/><path style="mix-blend-mode:multiply" opacity=".3" d="M131.1 227.047v167.814l19.886 18.118 37.302-29.907L131.1 227.047z" fill="#393939"/><path d="M228.297 230.44l17.176 172.975c.256 2.576-1.515 4.828-3.942 5.005l-83.689 7.019c-5.102.18-7.855-2.572-8.132-5.298L131.1 227.046c-.28-2.751 2.269-5.185 7.423-5.08l84.829 3.581c2.465.093 4.687 2.295 4.945 4.893z" fill="#212121"/><path d="M232.102 230.221l17.248 173.867c.257 2.589-1.521 4.853-3.958 5.032l-86.764 6.368c-2.709.199-5.16-1.88-5.438-4.62l-18.693-184.065c-.281-2.766 1.747-4.943 4.5-4.838l88.139 3.338c2.475.093 4.707 2.307 4.966 4.918z" fill="#494949"/><path d="M230.275 239.814l15.998 161.149c.24 2.419-1.425 4.531-3.705 4.693l-81.608 5.808c-2.519.18-4.797-1.761-5.056-4.312L138.65 237.138c-.261-2.573 1.623-4.612 4.179-4.53l82.804 2.639c2.314.073 4.4 2.129 4.642 4.567z" fill="#FFEDD8"/><path d="M186.383 229.156c.093.93-.562 1.659-1.466 1.629-.904-.031-1.713-.811-1.807-1.743-.093-.932.565-1.661 1.469-1.629.903.032 1.711.813 1.804 1.743z" fill="#fff"/><path d="M178.657 275.967c-9.755 5.082-13.931 16.383-9.328 25.24 4.603 8.858 16.242 11.918 25.997 6.836l-16.669-32.076zm16.669 32.075l-16.669-32.076a9.261 9.261 0 0112.504 3.95l8.11 15.606a9.291 9.291 0 01-3.945 12.52zm6.977 14.452c-9.754 5.083-13.93 16.383-9.327 25.241 4.603 8.857 16.242 11.918 25.996 6.835l-16.669-32.076z" fill="#EE6E23"/><path d="M218.973 354.572l-16.669-32.077a9.276 9.276 0 0110.24 1.125 9.297 9.297 0 012.264 2.825l8.109 15.606a9.298 9.298 0 01.618 7.078 9.285 9.285 0 01-4.562 5.443zm-14.114-9.802l-10.145 5.285c-12.964-12.639-21.724-29.496-26.28-50.572l10.145-5.286 26.28 50.573z" fill="#EE6E23"/><path d="M178.35 314.025c-8.623-25.512 6.386-38.365-2.114-61.995-4.625-12.857-13.882-22.434-24.066-29.567l-13.173-.498c-2.753-.105-4.781 2.072-4.5 4.837l18.693 184.066c.278 2.74 2.729 4.819 5.437 4.62l74.909-5.498c-.235-19.219-5.111-32.898-10.534-42.621-14.903-26.72-35.724-26.927-44.652-53.344z" fill="#000" opacity=".3"/><defs><linearGradient id="paint0_linear_85_1544" x1="109888" y1="122855" x2="187544" y2="122855" gradientUnits="userSpaceOnUse"><stop stop-color="#FF9085"/><stop offset="1" stop-color="#FB6FBB"/></linearGradient><linearGradient id="paint1_linear_85_1544" x1="27582.8" y1="-13538.2" x2="25644.5" y2="-12031.4" gradientUnits="userSpaceOnUse"><stop stop-color="#444B8C"/><stop offset=".996" stop-color="#3E4177"/></linearGradient><linearGradient id="paint2_linear_85_1544" x1="68922.3" y1="-38957.4" x2="29691" y2="-11091.5" gradientUnits="userSpaceOnUse"><stop stop-color="#444B8C"/><stop offset=".996" stop-color="#3E4177"/></linearGradient><linearGradient id="paint3_linear_85_1544" x1="422747" y1="342471" x2="536938" y2="719893" gradientUnits="userSpaceOnUse"><stop stop-color="#FFC444"/><stop offset=".996" stop-color="#F36F56"/></linearGradient></defs></svg>