<svg width="212" height="55" fill="none" xmlns="http://www.w3.org/2000/svg"><path d="M48.646 39.053c0 4.396-1.483 8.119-4.449 11.07-2.966 2.985-6.658 4.461-11.074 4.461H20.105V33.47h8.404v13.413h4.614c2.208 0 4.021-.706 5.438-2.15 1.417-1.444 2.11-3.337 2.11-5.712 0-2.374-.693-4.268-2.11-5.712-1.384-1.444-3.197-2.15-5.438-2.15H15.49c-2.636 0-5.01-.513-7.119-1.572-.131-.064-.296-.128-.428-.225-1.285-.673-2.439-1.572-3.527-2.663-.758-.738-1.384-1.54-1.944-2.375C.922 21.983.099 19.288 0 16.239v-1.22c.132-4.139 1.615-7.636 4.45-10.46C7.415 1.574 11.106.065 15.49.065h13.02V21.18h-8.404V7.767H15.49c-2.208 0-4.02.706-5.438 2.15-1.417 1.444-2.109 3.337-2.109 5.711 0 2.375.692 4.268 2.11 5.712 1.383 1.444 3.196 2.15 5.437 2.15h17.6c4.416 0 8.108 1.476 11.074 4.46 3 2.985 4.482 6.675 4.482 11.103z" fill="#4A4A4A"/><g clip-path="url(#clip0_5_2120)"><path d="M47.669 39.048c0 4.411-1.455 8.106-4.364 11.085-2.907 2.977-6.522 4.467-10.846 4.467H19.715V33.496h8.226v13.416h4.518c2.178 0 3.952-.72 5.323-2.158 1.373-1.433 2.059-3.335 2.057-5.706 0-2.37-.686-4.274-2.057-5.711-1.37-1.437-3.144-2.155-5.322-2.155H15.196A15.138 15.138 0 018.229 29.6a14.847 14.847 0 01-3.877-2.881A15.117 15.117 0 010 16.245V15.04c.121-4.155 1.572-7.655 4.352-10.498C7.258 1.566 10.873.076 15.197.075H27.94v21.108h-8.226V7.764h-4.518c-2.177 0-3.952.718-5.323 2.154-1.373 1.437-2.06 3.34-2.06 5.71 0 2.373.687 4.277 2.06 5.711 1.37 1.436 3.144 2.155 5.323 2.157h17.262c4.325 0 7.94 1.488 10.845 4.462 2.91 2.978 4.364 6.675 4.364 11.09z" fill="#4A4A4A"/><path d="M77.239 0h-7.353l-7.79 23.455h6.543l1.011-3.384h7.859l1.011 3.384h6.51L77.239 0zm-6.037 14.911l2.36-7.975 2.395 7.975h-4.755zM96.361 0H86.75v15.572h6.206V5.796h3.406a5.315 5.315 0 014.014 1.625c1.033 1.084 1.551 2.519 1.551 4.306s-.517 3.222-1.551 4.305a5.29 5.29 0 01-4.014 1.625H86.75v5.797h9.612c3.26 0 5.986-1.122 8.179-3.367 2.192-2.245 3.288-5.032 3.288-8.36 0-3.329-1.096-6.115-3.288-8.36C102.347 1.122 99.621 0 96.361 0zm23.878 0h-9.612v5.797h9.612a5.313 5.313 0 014.013 1.625c1.034 1.084 1.551 2.519 1.552 4.306 0 1.787-.517 3.222-1.552 4.305a5.312 5.312 0 01-4.013 1.625h-3.406V7.885h-6.206v15.571h9.612c3.26 0 5.986-1.122 8.178-3.367 2.193-2.245 3.289-5.032 3.289-8.36 0-3.329-1.096-6.115-3.289-8.36C126.225 1.122 123.499 0 120.239 0z" fill="#E97522"/><path d="M71.27 31.042a8.393 8.393 0 013.234.557 8.35 8.35 0 012.769 1.755c1.618 1.542 2.428 3.508 2.428 5.898 0 2.39-.81 4.356-2.428 5.897a8.347 8.347 0 01-2.769 1.755 8.39 8.39 0 01-3.235.557h-3.137v7.037h-6.036V31.042h9.173zm0 10.722a2.298 2.298 0 001.702-.703 2.48 2.48 0 00.692-1.81 2.41 2.41 0 00-.692-1.792 2.316 2.316 0 00-1.703-.687h-3.137v4.992h3.137zm23.473-10.722h6.003v23.456h-6.003v-9.014h-6.645v9.014h-6.037V31.042h6.037v8.678h6.645v-8.678zm30 20.423A12.673 12.673 0 01115.957 55a12.67 12.67 0 01-8.786-3.535 11.76 11.76 0 01-2.708-3.976 11.682 11.682 0 01-.884-4.72 11.698 11.698 0 01.884-4.72 11.76 11.76 0 012.708-3.975 12.669 12.669 0 018.786-3.535c3.279 0 6.43 1.268 8.786 3.535a11.762 11.762 0 012.708 3.976c.618 1.496.918 3.103.883 4.72a11.68 11.68 0 01-.883 4.719 11.762 11.762 0 01-2.708 3.976zm-13.34-4.122a6.762 6.762 0 008.511 1.072 6.688 6.688 0 002.796-3.578 6.648 6.648 0 00-.142-4.527 6.7 6.7 0 00-3.014-3.398 6.768 6.768 0 00-4.503-.71 6.736 6.736 0 00-3.924 2.306 6.656 6.656 0 00-1.545 4.261 6.146 6.146 0 001.821 4.574zm34.739-16.301v5.797h-5.835v17.659h-6.036v-17.66h-5.835v-5.796h17.706zm21.267 20.423A12.673 12.673 0 01158.623 55a12.67 12.67 0 01-8.786-3.535 11.76 11.76 0 01-2.708-3.976 11.698 11.698 0 01-.884-4.72 11.699 11.699 0 01.884-4.72 11.76 11.76 0 012.708-3.975 12.669 12.669 0 018.786-3.535 12.67 12.67 0 018.785 3.535 11.75 11.75 0 012.709 3.976 11.68 11.68 0 01.883 4.72 11.68 11.68 0 01-.883 4.719 11.761 11.761 0 01-2.708 3.976zm-13.34-4.122a6.762 6.762 0 008.511 1.072 6.688 6.688 0 002.796-3.578 6.648 6.648 0 00-.142-4.527 6.7 6.7 0 00-3.014-3.398 6.768 6.768 0 00-4.503-.71 6.736 6.736 0 00-3.924 2.306 6.656 6.656 0 00-1.545 4.261 6.146 6.146 0 001.821 4.574z" fill="#B1B1B1"/></g><defs><clipPath id="clip0_5_2120"><path fill="#fff" d="M0 0h171v55H0z"/></clipPath></defs></svg>